<svg width="456" height="150" viewBox="0 0 456 150" fill="none" xmlns="http://www.w3.org/2000/svg">
<path d="M23.1467 94.4515C18.5393 94.4515 14.4804 93.3545 10.97 91.1605C7.53272 88.9666 4.82679 85.895 2.8522 81.9458C0.950732 77.9966 0 73.4623 0 68.343C0 62.7849 1.097 57.8484 3.29099 53.5335C5.48499 49.2187 8.44689 45.818 12.1767 43.3314C15.9796 40.8449 20.2945 39.6016 25.1213 39.6016C27.6809 39.6016 30.204 40.1136 32.6905 41.1374C35.1771 42.0882 37.2614 43.4046 38.9434 45.0866V40.5889C39.6016 40.3695 40.3695 40.1867 41.2471 40.0404C42.1247 39.8942 43.0389 39.821 43.9896 39.821C45.7448 39.821 47.3903 40.077 48.9261 40.5889V73.7183C48.9261 77.7406 49.438 80.6294 50.4619 82.3846C51.5589 84.1398 53.2775 85.0174 55.6178 85.0174C56.6417 85.0174 57.4096 85.4562 57.9215 86.3338C58.5066 87.2114 58.7991 88.3815 58.7991 89.8441C58.7991 91.0143 58.47 92.0747 57.8118 93.0254C57.2267 93.9762 56.2394 94.4515 54.8499 94.4515C47.9023 94.4515 43.2217 91.5993 40.8083 85.895C38.6875 88.6009 36.1278 90.7217 33.1293 92.2575C30.1309 93.7202 26.8033 94.4515 23.1467 94.4515ZM10.2021 68.343C10.2021 73.5354 11.3722 77.6309 13.7125 80.6294C16.1259 83.5547 19.4169 85.0174 23.5855 85.0174C28.1928 85.0174 31.8861 83.445 34.6651 80.3003C37.5173 77.1555 38.9434 73.0235 38.9434 67.9042V55.6178C37.4808 53.6432 35.6159 52.0708 33.3487 50.9007C31.0816 49.6575 28.7413 49.0358 26.328 49.0358C23.1832 49.0358 20.4042 49.8769 17.9908 51.5589C15.5774 53.241 13.6759 55.5447 12.2864 58.47C10.8968 61.3222 10.2021 64.6132 10.2021 68.343Z" fill="url(#paint0_linear_3_147)"/>
<path d="M55.6144 85.0174C58.1009 85.0174 60.5143 83.8107 62.8546 81.3973C65.268 78.9107 67.2791 75.5832 68.888 71.4146C68.8149 70.3907 68.7783 69.3669 68.7783 68.343C68.7783 62.7849 69.8753 57.8484 72.0693 53.5335C74.2633 49.2187 77.2252 45.818 80.955 43.3314C84.7579 40.8449 89.0728 39.6016 93.8996 39.6016C96.4593 39.6016 98.9824 40.1136 101.469 41.1374C103.955 42.0882 106.04 43.4046 107.722 45.0866V40.5889C108.38 40.3695 109.148 40.1867 110.025 40.0404C110.903 39.8942 111.817 39.821 112.768 39.821C114.523 39.821 116.169 40.077 117.704 40.5889V123.632C117.704 140.745 111.452 149.301 98.9458 149.301C93.1683 149.301 88.634 147.583 85.343 144.146C82.1252 140.708 80.5162 135.991 80.5162 129.994C80.5162 116.611 89.6579 104.069 107.941 92.3672V87.7599C105.893 89.8807 103.517 91.5262 100.811 92.6963C98.1048 93.8665 95.1429 94.4515 91.925 94.4515C87.6833 94.4515 83.9169 93.5374 80.6259 91.709C77.4081 89.8076 74.7753 87.2114 72.7275 83.9204C68.1933 90.9411 62.2329 94.4515 54.8465 94.4515C53.8957 94.4515 53.1278 94.0127 52.5428 93.1351C51.9577 92.2575 51.6652 91.124 51.6652 89.7344C51.6652 86.5897 52.9816 85.0174 55.6144 85.0174ZM78.9804 68.343C78.9804 73.5354 80.1506 77.6309 82.4908 80.6294C84.9042 83.5547 88.1952 85.0174 92.3638 85.0174C96.9712 85.0174 100.664 83.445 103.443 80.3003C106.296 77.1555 107.722 73.0235 107.722 67.9042V55.6178C106.259 53.6432 104.394 52.0708 102.127 50.9007C99.86 49.6575 97.5197 49.0358 95.1063 49.0358C91.9616 49.0358 89.1825 49.8769 86.7691 51.5589C84.3557 53.241 82.4543 55.5447 81.0647 58.47C79.6752 61.3222 78.9804 64.6132 78.9804 68.343ZM90.3892 129.775C90.3892 132.92 91.1205 135.37 92.5832 137.125C94.0459 138.953 96.057 139.867 98.6167 139.867C104.833 139.867 107.941 134.455 107.941 123.632V103.995C96.2399 112.259 90.3892 120.853 90.3892 129.775Z" fill="url(#paint1_linear_3_147)"/>
<path d="M115.111 99.8268C114.014 99.7537 112.99 99.0589 112.039 97.7425C111.089 96.4261 110.65 95.1829 110.723 94.0127C110.723 92.8426 111.418 91.8187 112.807 90.9411L136.503 75.6929C134.894 71.7437 134.089 67.4654 134.089 62.858C134.089 58.3237 134.93 54.3014 136.612 50.791C138.367 47.2806 140.744 44.5381 143.743 42.5635C146.814 40.5889 150.325 39.6016 154.274 39.6016C157.419 39.6016 160.198 40.333 162.611 41.7956C165.024 43.1852 166.926 45.0866 168.315 47.5C169.705 49.9134 170.4 52.6925 170.4 55.8372C170.4 59.6401 168.681 63.4431 165.244 67.246C161.807 71.0489 156.468 75.0712 149.228 79.313C150.471 81.0682 152.226 82.4943 154.493 83.5913C156.76 84.6151 159.284 85.1271 162.063 85.1271C164.257 85.1271 165.354 86.6994 165.354 89.8441C165.354 91.2337 164.988 92.3307 164.257 93.1351C163.598 94.0127 162.648 94.4515 161.404 94.4515C152.702 94.4515 145.827 91.0508 140.781 84.2495L118.183 98.9492C117.232 99.6074 116.208 99.9 115.111 99.8268ZM143.633 61.9804C143.633 65.7833 144.182 68.928 145.279 71.4146C150.91 67.7579 154.896 64.7595 157.236 62.4192C159.649 60.0058 160.856 57.7387 160.856 55.6178C160.856 53.4969 160.234 51.8149 158.991 50.5716C157.748 49.3284 156.066 48.7067 153.945 48.7067C150.946 48.7067 148.46 49.95 146.485 52.4365C144.584 54.923 143.633 58.1043 143.633 61.9804Z" fill="url(#paint2_linear_3_147)"/>
<path d="M161.185 94.4515C160.234 94.4515 159.466 94.0127 158.881 93.1351C158.296 92.2575 158.004 91.124 158.004 89.7344C158.004 88.2718 158.369 87.1382 159.101 86.3338C159.759 85.5293 160.673 85.1271 161.843 85.1271C166.304 85.1271 170.107 83.7741 173.252 81.0682C176.47 78.3622 179.761 73.6817 183.125 67.0266L189.268 55.0693C192.267 49.2187 195.119 45.1963 197.825 43.0023C200.531 40.7352 203.675 39.6016 207.259 39.6016C210.55 39.6016 213.329 40.5889 215.596 42.5635C217.863 44.465 219.436 47.0612 220.313 50.3522C222.361 46.915 224.994 44.2822 228.212 42.4538C231.429 40.5524 235.013 39.6016 238.962 39.6016C244.667 39.6016 249.055 41.4665 252.126 45.1963C255.271 48.9261 256.843 54.1551 256.843 60.8834V73.7183C256.843 77.7406 257.355 80.6294 258.379 82.3846C259.476 84.1398 261.195 85.0174 263.535 85.0174C264.559 85.0174 265.327 85.4562 265.839 86.3338C266.424 87.2114 266.716 88.3815 266.716 89.8441C266.716 91.0143 266.387 92.0747 265.729 93.0254C265.144 93.9762 264.157 94.4515 262.767 94.4515C252.163 94.4515 246.861 87.9427 246.861 74.925V60.8834C246.861 52.985 243.752 49.0358 237.536 49.0358C234.318 49.0358 231.466 50.3157 228.979 52.8753C226.566 55.435 224.665 58.9819 223.275 63.5162C221.959 68.0505 221.3 73.316 221.3 79.313V92.9157C220.569 93.1351 219.765 93.318 218.887 93.4642C218.009 93.6105 217.168 93.6836 216.364 93.6836C214.609 93.6836 212.963 93.4277 211.428 92.9157V57.9215C211.428 55.0693 211.062 52.8753 210.33 51.3395C209.599 49.8037 208.283 49.0358 206.381 49.0358C204.919 49.0358 203.529 49.95 202.213 51.7783C200.969 53.5335 199.397 56.276 197.496 60.0058L189.926 74.5959C186.416 81.3241 182.32 86.3338 177.64 89.6247C173.033 92.8426 167.548 94.4515 161.185 94.4515Z" fill="url(#paint3_linear_3_147)"/>
<path d="M263.551 85.0174C266.038 85.0174 268.451 83.8107 270.791 81.3973C273.205 78.9107 275.216 75.5832 276.825 71.4146C276.752 70.3907 276.715 69.3669 276.715 68.343C276.715 62.7849 277.812 57.8484 280.006 53.5335C282.2 49.2187 285.162 45.818 288.892 43.3314C292.695 40.8449 297.01 39.6016 301.836 39.6016C304.396 39.6016 306.919 40.1136 309.406 41.1374C311.892 42.0882 313.977 43.4046 315.659 45.0866V0.767902C317.048 0.255967 318.73 0 320.705 0C322.387 0 324.032 0.255967 325.641 0.767902V73.7183C325.641 77.7406 326.153 80.6294 327.177 82.3846C328.274 84.1398 329.993 85.0174 332.333 85.0174C333.357 85.0174 334.125 85.4562 334.637 86.3338C335.222 87.2114 335.514 88.3815 335.514 89.8441C335.514 91.0143 335.185 92.0747 334.527 93.0254C333.942 93.9762 332.955 94.4515 331.565 94.4515C324.617 94.4515 319.937 91.5993 317.523 85.895C315.403 88.6009 312.843 90.7217 309.845 92.2575C306.846 93.7202 303.518 94.4515 299.862 94.4515C295.62 94.4515 291.854 93.5374 288.563 91.709C285.345 89.8076 282.712 87.2114 280.664 83.9204C276.13 90.9411 270.17 94.4515 262.783 94.4515C261.833 94.4515 261.065 94.0127 260.48 93.1351C259.895 92.2575 259.602 91.124 259.602 89.7344C259.602 86.5897 260.918 85.0174 263.551 85.0174ZM286.917 68.343C286.917 73.5354 288.087 77.6309 290.428 80.6294C292.841 83.5547 296.132 85.0174 300.301 85.0174C304.908 85.0174 308.601 83.445 311.38 80.3003C314.232 77.1555 315.659 73.0235 315.659 67.9042V55.6178C314.196 53.6432 312.331 52.0708 310.064 50.9007C307.797 49.6575 305.457 49.0358 303.043 49.0358C299.898 49.0358 297.119 49.8769 294.706 51.5589C292.293 53.241 290.391 55.5447 289.002 58.47C287.612 61.3222 286.917 64.6132 286.917 68.343Z" fill="url(#paint4_linear_3_147)"/>
<path d="M332.328 85.0174C334.814 85.0174 337.228 83.8107 339.568 81.3973C341.981 78.9107 343.993 75.5832 345.601 71.4146C345.528 70.3907 345.492 69.3669 345.492 68.343C345.492 62.7849 346.589 57.8484 348.783 53.5335C350.977 49.2187 353.939 45.818 357.668 43.3314C361.471 40.8449 365.786 39.6016 370.613 39.6016C373.173 39.6016 375.696 40.1136 378.182 41.1374C380.669 42.0882 382.753 43.4046 384.435 45.0866V40.5889C385.093 40.3695 385.861 40.1867 386.739 40.0404C387.617 39.8942 388.531 39.821 389.481 39.821C391.237 39.821 392.882 40.077 394.418 40.5889V72.731C394.418 76.607 395.003 79.6421 396.173 81.8361C397.416 83.9569 399.464 85.0174 402.316 85.0174C403.56 85.0174 404.401 85.5293 404.839 86.5532C405.278 87.577 405.498 88.674 405.498 89.8441C405.498 91.0143 405.169 92.0747 404.51 93.0254C403.925 93.9762 402.938 94.4515 401.548 94.4515C394.381 94.4515 389.591 91.2337 387.178 84.798C385.057 87.7964 382.387 90.1732 379.17 91.9284C376.025 93.6105 372.515 94.4515 368.638 94.4515C364.397 94.4515 360.63 93.5374 357.339 91.709C354.122 89.8076 351.489 87.2114 349.441 83.9204C344.907 90.9411 338.946 94.4515 331.56 94.4515C330.609 94.4515 329.841 94.0127 329.256 93.1351C328.671 92.2575 328.379 91.124 328.379 89.7344C328.379 86.5897 329.695 85.0174 332.328 85.0174ZM355.694 68.343C355.694 73.5354 356.864 77.6309 359.204 80.6294C361.618 83.5547 364.909 85.0174 369.077 85.0174C373.685 85.0174 377.378 83.445 380.157 80.3003C383.009 77.1555 384.435 73.0235 384.435 67.9042V55.6178C382.973 53.6432 381.108 52.0708 378.841 50.9007C376.573 49.6575 374.233 49.0358 371.82 49.0358C368.675 49.0358 365.896 49.8769 363.483 51.5589C361.069 53.241 359.168 55.5447 357.778 58.47C356.389 61.3222 355.694 64.6132 355.694 68.343Z" fill="url(#paint5_linear_3_147)"/>
<path d="M401.515 94.4515C400.564 94.4515 399.796 94.0127 399.211 93.1351C398.626 92.2575 398.334 91.124 398.334 89.7344C398.334 86.5897 399.65 85.0174 402.283 85.0174C404.404 85.0174 406.561 84.6883 408.755 84.0301C410.949 83.2987 413.509 82.092 416.434 80.41C413.582 75.4369 412.156 69.5862 412.156 62.858C412.156 58.3237 412.997 54.338 414.679 50.9007C416.361 47.3903 418.701 44.6478 421.7 42.6732C424.698 40.6255 428.099 39.6016 431.902 39.6016C435.12 39.6016 437.972 40.3695 440.458 41.9053C442.945 43.368 444.883 45.4157 446.273 48.0485C447.662 50.6813 448.357 53.7163 448.357 57.1536C448.357 61.8341 446.967 66.1124 444.188 69.9885C441.482 73.8645 436.875 78.0697 430.366 82.604C432.706 84.286 435.851 85.1271 439.8 85.1271C441.921 85.1271 444.042 84.8345 446.163 84.2495C448.284 83.6644 450.331 82.8599 452.306 81.8361C453.403 82.6405 454.207 83.8472 454.719 85.4562C455.304 86.992 455.597 88.4912 455.597 89.9538C453.184 91.3434 450.624 92.4404 447.918 93.2448C445.212 94.0493 442.36 94.4515 439.361 94.4515H439.252C435.741 94.4515 432.45 93.8665 429.379 92.6963C426.307 91.5262 423.747 89.9173 421.7 87.8696C414.679 92.2575 407.951 94.4515 401.515 94.4515ZM421.7 61.9804C421.7 67.7579 422.724 72.3653 424.771 75.8026C429.525 72.5116 433.035 69.2937 435.302 66.149C437.643 63.0043 438.813 60.0058 438.813 57.1536C438.813 54.5208 438.155 52.4731 436.838 51.0104C435.595 49.4746 433.84 48.7067 431.573 48.7067C428.721 48.7067 426.344 49.9865 424.442 52.5462C422.614 55.1059 421.7 58.2506 421.7 61.9804ZM416.434 30.0578C415.191 29.6921 413.911 28.8145 412.595 27.425C411.351 26.0354 410.51 24.6459 410.072 23.2564C412.339 21.1355 414.862 18.5393 417.641 15.4677C420.493 12.3961 423.345 9.14165 426.197 5.7044C428.465 5.33873 430.695 5.33873 432.889 5.7044C435.741 9.14165 438.557 12.3961 441.336 15.4677C444.188 18.4661 446.748 21.0624 449.015 23.2564C448.576 24.6459 447.699 26.0354 446.382 27.425C445.139 28.8145 443.896 29.6921 442.652 30.0578C441.555 29.2533 440.239 28.1197 438.703 26.6571C437.167 25.1944 435.595 23.5855 433.986 21.8303C432.377 20.0019 430.878 18.2467 429.488 16.5647C427.294 19.1975 424.954 21.8303 422.468 24.4631C419.981 27.0959 417.97 28.9608 416.434 30.0578Z" fill="url(#paint6_linear_3_147)"/>
<defs>
<linearGradient id="paint0_linear_3_147" x1="227.798" y1="0" x2="227.798" y2="149.301" gradientUnits="userSpaceOnUse">
<stop stop-color="#B18C45"/>
<stop offset="0.350962" stop-color="#DBC37A"/>
<stop offset="0.725962" stop-color="#D4BA6B"/>
<stop offset="1" stop-color="#AD883A"/>
</linearGradient>
<linearGradient id="paint1_linear_3_147" x1="227.798" y1="0" x2="227.798" y2="149.301" gradientUnits="userSpaceOnUse">
<stop stop-color="#B18C45"/>
<stop offset="0.350962" stop-color="#DBC37A"/>
<stop offset="0.725962" stop-color="#D4BA6B"/>
<stop offset="1" stop-color="#AD883A"/>
</linearGradient>
<linearGradient id="paint2_linear_3_147" x1="227.798" y1="0" x2="227.798" y2="149.301" gradientUnits="userSpaceOnUse">
<stop stop-color="#B18C45"/>
<stop offset="0.350962" stop-color="#DBC37A"/>
<stop offset="0.725962" stop-color="#D4BA6B"/>
<stop offset="1" stop-color="#AD883A"/>
</linearGradient>
<linearGradient id="paint3_linear_3_147" x1="227.798" y1="0" x2="227.798" y2="149.301" gradientUnits="userSpaceOnUse">
<stop stop-color="#B18C45"/>
<stop offset="0.350962" stop-color="#DBC37A"/>
<stop offset="0.725962" stop-color="#D4BA6B"/>
<stop offset="1" stop-color="#AD883A"/>
</linearGradient>
<linearGradient id="paint4_linear_3_147" x1="227.798" y1="0" x2="227.798" y2="149.301" gradientUnits="userSpaceOnUse">
<stop stop-color="#B18C45"/>
<stop offset="0.350962" stop-color="#DBC37A"/>
<stop offset="0.725962" stop-color="#D4BA6B"/>
<stop offset="1" stop-color="#AD883A"/>
</linearGradient>
<linearGradient id="paint5_linear_3_147" x1="227.798" y1="0" x2="227.798" y2="149.301" gradientUnits="userSpaceOnUse">
<stop stop-color="#B18C45"/>
<stop offset="0.350962" stop-color="#DBC37A"/>
<stop offset="0.725962" stop-color="#D4BA6B"/>
<stop offset="1" stop-color="#AD883A"/>
</linearGradient>
<linearGradient id="paint6_linear_3_147" x1="227.798" y1="0" x2="227.798" y2="149.301" gradientUnits="userSpaceOnUse">
<stop stop-color="#B18C45"/>
<stop offset="0.350962" stop-color="#DBC37A"/>
<stop offset="0.725962" stop-color="#D4BA6B"/>
<stop offset="1" stop-color="#AD883A"/>
</linearGradient>
</defs>
</svg>
