<svg width="247" height="247" viewBox="0 0 247 247" fill="none" xmlns="http://www.w3.org/2000/svg">
<rect x="2.46269" y="2.46269" width="241.343" height="241.343" rx="33.7388" fill="#0A0A0A" stroke="url(#paint0_linear_3_153)" stroke-width="4.92537"/>
<path d="M32.094 119.946C35.3998 118.888 39.4991 117.368 44.3917 115.384C49.2843 113.268 53.9125 111.087 58.2762 108.839C53.9125 100.376 51.7307 90.5905 51.7307 79.4829C51.7307 71.2844 53.2513 64.0777 56.2927 57.8627C59.3341 51.5155 63.5655 46.5567 68.9871 42.9864C74.4087 39.2839 80.5575 37.4326 87.4337 37.4326C93.252 37.4326 98.4091 38.8211 102.905 41.598C107.401 44.2426 110.905 47.9452 113.418 52.7056C115.93 57.466 117.186 62.9537 117.186 69.1686C116.657 85.0367 105.417 100.045 83.4667 114.194C87.8304 117.897 93.9131 119.748 101.715 119.748C105.55 119.748 109.384 119.219 113.219 118.161C117.054 117.103 120.757 115.649 124.327 113.797C126.31 115.252 127.765 117.434 128.691 120.343C129.748 123.12 130.277 125.831 130.277 128.475C125.914 130.988 121.285 132.971 116.393 134.426C111.5 135.88 106.343 136.608 100.921 136.608H100.723C93.847 136.608 87.4337 135.418 81.4832 133.037C75.6649 130.525 70.9706 127.087 67.4003 122.723C62.5077 125.236 57.2845 127.682 51.7307 130.062C46.3091 132.31 41.6809 134.029 37.8461 135.219C35.7304 133.368 34.2097 131.186 33.2841 128.674C32.2262 126.161 31.8295 123.252 32.094 119.946ZM68.9871 77.8961C68.9871 87.2846 70.5078 95.0864 73.5492 101.301C82.6733 95.2186 89.285 89.7971 93.3842 85.0367C97.4834 80.144 99.6653 74.8547 99.9297 69.1686C99.9297 64.4082 98.7396 60.7057 96.3594 58.061C94.1115 55.2841 90.9379 53.8957 86.8386 53.8957C81.6815 53.8957 77.3839 56.2098 73.9459 60.8379C70.64 65.4661 68.9871 71.1522 68.9871 77.8961Z" fill="url(#paint1_linear_3_153)"/>
<path d="M214.174 126.162C210.868 127.22 206.769 128.74 201.876 130.724C196.984 132.84 192.356 135.022 187.992 137.27C192.356 145.732 194.537 155.518 194.537 166.625C194.537 174.824 193.017 182.031 189.975 188.245C186.934 194.593 182.703 199.551 177.281 203.122C171.859 206.824 165.711 208.676 158.834 208.676C153.016 208.676 147.859 207.287 143.363 204.51C138.867 201.866 135.363 198.163 132.851 193.403C130.338 188.642 129.082 183.155 129.082 176.94C129.611 161.072 140.851 146.063 162.801 131.914C158.438 128.212 152.355 126.36 144.553 126.36C140.718 126.36 136.884 126.889 133.049 127.947C129.214 129.005 125.512 130.459 121.941 132.311C119.958 130.856 118.503 128.674 117.578 125.765C116.52 122.988 115.991 120.277 115.991 117.633C120.354 115.12 124.983 113.137 129.875 111.682C134.768 110.228 139.925 109.5 145.347 109.5H145.545C152.421 109.5 158.834 110.691 164.785 113.071C170.603 115.583 175.297 119.021 178.868 123.385C183.76 120.873 188.984 118.426 194.537 116.046C199.959 113.798 204.587 112.079 208.422 110.889C210.538 112.74 212.058 114.922 212.984 117.434C214.042 119.947 214.439 122.856 214.174 126.162ZM177.281 168.212C177.281 158.824 175.76 151.022 172.719 144.807C163.595 150.89 156.983 156.311 152.884 161.072C148.785 165.964 146.603 171.253 146.338 176.94C146.338 181.7 147.528 185.402 149.909 188.047C152.157 190.824 155.33 192.212 159.429 192.212C164.587 192.212 168.884 189.898 172.322 185.27C175.628 180.642 177.281 174.956 177.281 168.212Z" fill="url(#paint2_linear_3_153)"/>
<defs>
<linearGradient id="paint0_linear_3_153" x1="123.134" y1="0" x2="123.134" y2="246.269" gradientUnits="userSpaceOnUse">
<stop stop-color="#B18C45"/>
<stop offset="0.350962" stop-color="#DBC37A"/>
<stop offset="0.725962" stop-color="#D4BA6B"/>
<stop offset="1" stop-color="#AD883A"/>
</linearGradient>
<linearGradient id="paint1_linear_3_153" x1="123.134" y1="37.4326" x2="123.134" y2="208.676" gradientUnits="userSpaceOnUse">
<stop stop-color="#B18C45"/>
<stop offset="0.350962" stop-color="#DBC37A"/>
<stop offset="0.725962" stop-color="#D4BA6B"/>
<stop offset="1" stop-color="#AD883A"/>
</linearGradient>
<linearGradient id="paint2_linear_3_153" x1="123.134" y1="37.4326" x2="123.134" y2="208.676" gradientUnits="userSpaceOnUse">
<stop stop-color="#B18C45"/>
<stop offset="0.350962" stop-color="#DBC37A"/>
<stop offset="0.725962" stop-color="#D4BA6B"/>
<stop offset="1" stop-color="#AD883A"/>
</linearGradient>
</defs>
</svg>
