<svg width="778" height="247" viewBox="0 0 778 247" fill="none" xmlns="http://www.w3.org/2000/svg">
<path d="M345.147 142.452C340.539 142.452 336.48 141.355 332.97 139.161C329.533 136.967 326.827 133.895 324.852 129.946C322.951 125.997 322 121.462 322 116.343C322 110.785 323.097 105.848 325.291 101.534C327.485 97.2187 330.447 93.818 334.177 91.3314C337.98 88.8449 342.294 87.6016 347.121 87.6016C349.681 87.6016 352.204 88.1136 354.691 89.1374C357.177 90.0882 359.261 91.4046 360.943 93.0866V88.5889C361.602 88.3695 362.37 88.1867 363.247 88.0404C364.125 87.8942 365.039 87.821 365.99 87.821C367.745 87.821 369.39 88.077 370.926 88.5889V121.718C370.926 125.741 371.438 128.629 372.462 130.385C373.559 132.14 375.278 133.017 377.618 133.017C378.642 133.017 379.41 133.456 379.921 134.334C380.507 135.211 380.799 136.381 380.799 137.844C380.799 139.014 380.47 140.075 379.812 141.025C379.227 141.976 378.239 142.452 376.85 142.452C369.902 142.452 365.222 139.599 362.808 133.895C360.687 136.601 358.128 138.722 355.129 140.258C352.131 141.72 348.803 142.452 345.147 142.452ZM332.202 116.343C332.202 121.535 333.372 125.631 335.712 128.629C338.126 131.555 341.417 133.017 345.585 133.017C350.193 133.017 353.886 131.445 356.665 128.3C359.517 125.156 360.943 121.024 360.943 115.904V103.618C359.481 101.643 357.616 100.071 355.349 98.9007C353.082 97.6575 350.741 97.0358 348.328 97.0358C345.183 97.0358 342.404 97.8769 339.991 99.5589C337.577 101.241 335.676 103.545 334.286 106.47C332.897 109.322 332.202 112.613 332.202 116.343Z" fill="url(#paint0_linear_21_45)"/>
<path d="M377.614 133.017C380.101 133.017 382.514 131.811 384.855 129.397C387.268 126.911 389.279 123.583 390.888 119.415C390.815 118.391 390.778 117.367 390.778 116.343C390.778 110.785 391.875 105.848 394.069 101.534C396.263 97.2187 399.225 93.818 402.955 91.3314C406.758 88.8449 411.073 87.6016 415.9 87.6016C418.459 87.6016 420.982 88.1136 423.469 89.1374C425.955 90.0882 428.04 91.4046 429.722 93.0866V88.5889C430.38 88.3695 431.148 88.1867 432.025 88.0404C432.903 87.8942 433.817 87.821 434.768 87.821C436.523 87.821 438.169 88.077 439.704 88.5889V171.632C439.704 188.745 433.452 197.301 420.946 197.301C415.168 197.301 410.634 195.583 407.343 192.146C404.125 188.708 402.516 183.991 402.516 177.994C402.516 164.611 411.658 152.069 429.941 140.367V135.76C427.893 137.881 425.517 139.526 422.811 140.696C420.105 141.866 417.143 142.452 413.925 142.452C409.683 142.452 405.917 141.537 402.626 139.709C399.408 137.808 396.775 135.211 394.728 131.92C390.193 138.941 384.233 142.452 376.846 142.452C375.896 142.452 375.128 142.013 374.543 141.135C373.958 140.258 373.665 139.124 373.665 137.734C373.665 134.59 374.982 133.017 377.614 133.017ZM400.98 116.343C400.98 121.535 402.151 125.631 404.491 128.629C406.904 131.555 410.195 133.017 414.364 133.017C418.971 133.017 422.664 131.445 425.443 128.3C428.296 125.156 429.722 121.024 429.722 115.904V103.618C428.259 101.643 426.394 100.071 424.127 98.9007C421.86 97.6575 419.52 97.0358 417.106 97.0358C413.962 97.0358 411.183 97.8769 408.769 99.5589C406.356 101.241 404.454 103.545 403.065 106.47C401.675 109.322 400.98 112.613 400.98 116.343ZM412.389 177.775C412.389 180.92 413.121 183.37 414.583 185.125C416.046 186.953 418.057 187.867 420.617 187.867C426.833 187.867 429.941 182.455 429.941 171.632V151.995C418.24 160.259 412.389 168.853 412.389 177.775Z" fill="url(#paint1_linear_21_45)"/>
<path d="M437.111 147.827C436.014 147.754 434.99 147.059 434.039 145.743C433.089 144.426 432.65 143.183 432.723 142.013C432.723 140.843 433.418 139.819 434.807 138.941L458.503 123.693C456.894 119.744 456.089 115.465 456.089 110.858C456.089 106.324 456.93 102.301 458.612 98.791C460.367 95.2806 462.744 92.5381 465.743 90.5635C468.814 88.5889 472.325 87.6016 476.274 87.6016C479.419 87.6016 482.198 88.333 484.611 89.7956C487.024 91.1852 488.926 93.0866 490.315 95.5C491.705 97.9134 492.4 100.692 492.4 103.837C492.4 107.64 490.681 111.443 487.244 115.246C483.807 119.049 478.468 123.071 471.228 127.313C472.471 129.068 474.226 130.494 476.493 131.591C478.76 132.615 481.284 133.127 484.063 133.127C486.257 133.127 487.354 134.699 487.354 137.844C487.354 139.234 486.988 140.331 486.257 141.135C485.598 142.013 484.648 142.452 483.404 142.452C474.702 142.452 467.827 139.051 462.781 132.249L440.183 146.949C439.232 147.607 438.208 147.9 437.111 147.827ZM465.633 109.98C465.633 113.783 466.182 116.928 467.279 119.415C472.91 115.758 476.896 112.759 479.236 110.419C481.649 108.006 482.856 105.739 482.856 103.618C482.856 101.497 482.234 99.8149 480.991 98.5716C479.748 97.3284 478.066 96.7067 475.945 96.7067C472.946 96.7067 470.46 97.95 468.485 100.437C466.584 102.923 465.633 106.104 465.633 109.98Z" fill="url(#paint2_linear_21_45)"/>
<path d="M483.185 142.452C482.234 142.452 481.466 142.013 480.881 141.135C480.296 140.258 480.004 139.124 480.004 137.734C480.004 136.272 480.369 135.138 481.101 134.334C481.759 133.529 482.673 133.127 483.843 133.127C488.304 133.127 492.107 131.774 495.252 129.068C498.47 126.362 501.761 121.682 505.125 115.027L511.268 103.069C514.267 97.2187 517.119 93.1963 519.825 91.0023C522.531 88.7352 525.675 87.6016 529.259 87.6016C532.55 87.6016 535.329 88.5889 537.596 90.5635C539.863 92.465 541.436 95.0612 542.313 98.3522C544.361 94.915 546.994 92.2822 550.212 90.4538C553.429 88.5524 557.013 87.6016 560.962 87.6016C566.667 87.6016 571.055 89.4665 574.126 93.1963C577.271 96.9261 578.843 102.155 578.843 108.883V121.718C578.843 125.741 579.355 128.629 580.379 130.385C581.476 132.14 583.195 133.017 585.535 133.017C586.559 133.017 587.327 133.456 587.839 134.334C588.424 135.211 588.716 136.381 588.716 137.844C588.716 139.014 588.387 140.075 587.729 141.025C587.144 141.976 586.157 142.452 584.767 142.452C574.163 142.452 568.861 135.943 568.861 122.925V108.883C568.861 100.985 565.752 97.0358 559.536 97.0358C556.318 97.0358 553.466 98.3157 550.979 100.875C548.566 103.435 546.665 106.982 545.275 111.516C543.959 116.05 543.3 121.316 543.3 127.313V140.916C542.569 141.135 541.765 141.318 540.887 141.464C540.009 141.611 539.168 141.684 538.364 141.684C536.609 141.684 534.963 141.428 533.428 140.916V105.922C533.428 103.069 533.062 100.875 532.33 99.3395C531.599 97.8037 530.283 97.0358 528.381 97.0358C526.919 97.0358 525.529 97.95 524.213 99.7783C522.969 101.534 521.397 104.276 519.496 108.006L511.926 122.596C508.416 129.324 504.32 134.334 499.64 137.625C495.033 140.843 489.548 142.452 483.185 142.452Z" fill="url(#paint3_linear_21_45)"/>
<path d="M585.551 133.017C588.038 133.017 590.451 131.811 592.791 129.397C595.205 126.911 597.216 123.583 598.825 119.415C598.752 118.391 598.715 117.367 598.715 116.343C598.715 110.785 599.812 105.848 602.006 101.534C604.2 97.2187 607.162 93.818 610.892 91.3314C614.695 88.8449 619.01 87.6016 623.836 87.6016C626.396 87.6016 628.919 88.1136 631.406 89.1374C633.892 90.0882 635.977 91.4046 637.659 93.0866V48.7679C639.048 48.256 640.73 48 642.705 48C644.387 48 646.032 48.256 647.641 48.7679V121.718C647.641 125.741 648.153 128.629 649.177 130.385C650.274 132.14 651.993 133.017 654.333 133.017C655.357 133.017 656.125 133.456 656.637 134.334C657.222 135.211 657.514 136.381 657.514 137.844C657.514 139.014 657.185 140.075 656.527 141.025C655.942 141.976 654.955 142.452 653.565 142.452C646.617 142.452 641.937 139.599 639.523 133.895C637.403 136.601 634.843 138.722 631.845 140.258C628.846 141.72 625.518 142.452 621.862 142.452C617.62 142.452 613.854 141.537 610.563 139.709C607.345 137.808 604.712 135.211 602.664 131.92C598.13 138.941 592.17 142.452 584.783 142.452C583.833 142.452 583.065 142.013 582.48 141.135C581.895 140.258 581.602 139.124 581.602 137.734C581.602 134.59 582.918 133.017 585.551 133.017ZM608.917 116.343C608.917 121.535 610.087 125.631 612.428 128.629C614.841 131.555 618.132 133.017 622.301 133.017C626.908 133.017 630.601 131.445 633.38 128.3C636.232 125.156 637.659 121.024 637.659 115.904V103.618C636.196 101.643 634.331 100.071 632.064 98.9007C629.797 97.6575 627.457 97.0358 625.043 97.0358C621.898 97.0358 619.119 97.8769 616.706 99.5589C614.293 101.241 612.391 103.545 611.002 106.47C609.612 109.322 608.917 112.613 608.917 116.343Z" fill="url(#paint4_linear_21_45)"/>
<path d="M654.328 133.017C656.814 133.017 659.228 131.811 661.568 129.397C663.981 126.911 665.993 123.583 667.601 119.415C667.528 118.391 667.492 117.367 667.492 116.343C667.492 110.785 668.589 105.848 670.783 101.534C672.977 97.2187 675.939 93.818 679.668 91.3314C683.471 88.8449 687.786 87.6016 692.613 87.6016C695.173 87.6016 697.696 88.1136 700.182 89.1374C702.669 90.0882 704.753 91.4046 706.435 93.0866V88.5889C707.093 88.3695 707.861 88.1867 708.739 88.0404C709.617 87.8942 710.531 87.821 711.481 87.821C713.237 87.821 714.882 88.077 716.418 88.5889V120.731C716.418 124.607 717.003 127.642 718.173 129.836C719.416 131.957 721.464 133.017 724.316 133.017C725.56 133.017 726.401 133.529 726.839 134.553C727.278 135.577 727.498 136.674 727.498 137.844C727.498 139.014 727.169 140.075 726.51 141.025C725.925 141.976 724.938 142.452 723.548 142.452C716.381 142.452 711.591 139.234 709.178 132.798C707.057 135.796 704.387 138.173 701.17 139.928C698.025 141.611 694.515 142.452 690.638 142.452C686.397 142.452 682.63 141.537 679.339 139.709C676.122 137.808 673.489 135.211 671.441 131.92C666.907 138.941 660.946 142.452 653.56 142.452C652.609 142.452 651.841 142.013 651.256 141.135C650.671 140.258 650.379 139.124 650.379 137.734C650.379 134.59 651.695 133.017 654.328 133.017ZM677.694 116.343C677.694 121.535 678.864 125.631 681.204 128.629C683.618 131.555 686.909 133.017 691.077 133.017C695.685 133.017 699.378 131.445 702.157 128.3C705.009 125.156 706.435 121.024 706.435 115.904V103.618C704.973 101.643 703.108 100.071 700.841 98.9007C698.573 97.6575 696.233 97.0358 693.82 97.0358C690.675 97.0358 687.896 97.8769 685.483 99.5589C683.069 101.241 681.168 103.545 679.778 106.47C678.389 109.322 677.694 112.613 677.694 116.343Z" fill="url(#paint5_linear_21_45)"/>
<path d="M723.515 142.452C722.564 142.452 721.796 142.013 721.211 141.135C720.626 140.258 720.334 139.124 720.334 137.734C720.334 134.59 721.65 133.017 724.283 133.017C726.404 133.017 728.561 132.688 730.755 132.03C732.949 131.299 735.509 130.092 738.434 128.41C735.582 123.437 734.156 117.586 734.156 110.858C734.156 106.324 734.997 102.338 736.679 98.9007C738.361 95.3903 740.701 92.6478 743.7 90.6732C746.698 88.6255 750.099 87.6016 753.902 87.6016C757.12 87.6016 759.972 88.3695 762.458 89.9053C764.945 91.368 766.883 93.4157 768.273 96.0485C769.662 98.6813 770.357 101.716 770.357 105.154C770.357 109.834 768.967 114.112 766.188 117.988C763.482 121.865 758.875 126.07 752.366 130.604C754.706 132.286 757.851 133.127 761.8 133.127C763.921 133.127 766.042 132.835 768.163 132.249C770.284 131.664 772.331 130.86 774.306 129.836C775.403 130.641 776.207 131.847 776.719 133.456C777.304 134.992 777.597 136.491 777.597 137.954C775.184 139.343 772.624 140.44 769.918 141.245C767.212 142.049 764.36 142.452 761.361 142.452H761.252C757.741 142.452 754.45 141.866 751.379 140.696C748.307 139.526 745.747 137.917 743.7 135.87C736.679 140.258 729.951 142.452 723.515 142.452ZM743.7 109.98C743.7 115.758 744.724 120.365 746.771 123.803C751.525 120.512 755.035 117.294 757.302 114.149C759.643 111.004 760.813 108.006 760.813 105.154C760.813 102.521 760.155 100.473 758.838 99.0104C757.595 97.4746 755.84 96.7067 753.573 96.7067C750.721 96.7067 748.344 97.9865 746.442 100.546C744.614 103.106 743.7 106.251 743.7 109.98ZM738.434 78.0578C737.191 77.6921 735.911 76.8145 734.595 75.425C733.351 74.0354 732.51 72.6459 732.072 71.2564C734.339 69.1355 736.862 66.5393 739.641 63.4677C742.493 60.3961 745.345 57.1417 748.197 53.7044C750.465 53.3387 752.695 53.3387 754.889 53.7044C757.741 57.1417 760.557 60.3961 763.336 63.4677C766.188 66.4661 768.748 69.0624 771.015 71.2564C770.576 72.6459 769.699 74.0354 768.382 75.425C767.139 76.8145 765.896 77.6921 764.652 78.0578C763.555 77.2533 762.239 76.1197 760.703 74.6571C759.167 73.1944 757.595 71.5855 755.986 69.8303C754.377 68.0019 752.878 66.2467 751.488 64.5647C749.294 67.1975 746.954 69.8303 744.468 72.4631C741.981 75.0959 739.97 76.9608 738.434 78.0578Z" fill="url(#paint6_linear_21_45)"/>
<rect x="2.46269" y="2.46269" width="241.343" height="241.343" rx="33.7388" fill="#0A0A0A" stroke="url(#paint7_linear_21_45)" stroke-width="4.92537"/>
<path d="M32.094 119.946C35.3998 118.888 39.4991 117.368 44.3917 115.384C49.2843 113.268 53.9125 111.087 58.2762 108.839C53.9125 100.376 51.7307 90.5905 51.7307 79.4829C51.7307 71.2844 53.2513 64.0777 56.2927 57.8627C59.3341 51.5155 63.5655 46.5567 68.9871 42.9864C74.4087 39.2839 80.5575 37.4326 87.4337 37.4326C93.252 37.4326 98.4091 38.8211 102.905 41.598C107.401 44.2426 110.905 47.9452 113.418 52.7056C115.93 57.466 117.186 62.9537 117.186 69.1686C116.657 85.0367 105.417 100.045 83.4667 114.194C87.8304 117.897 93.9131 119.748 101.715 119.748C105.55 119.748 109.384 119.219 113.219 118.161C117.054 117.103 120.757 115.649 124.327 113.797C126.31 115.252 127.765 117.434 128.691 120.343C129.748 123.12 130.277 125.831 130.277 128.475C125.914 130.988 121.285 132.971 116.393 134.426C111.5 135.88 106.343 136.608 100.921 136.608H100.723C93.847 136.608 87.4337 135.418 81.4832 133.037C75.6649 130.525 70.9706 127.087 67.4003 122.723C62.5077 125.236 57.2845 127.682 51.7307 130.062C46.3091 132.31 41.6809 134.029 37.8461 135.219C35.7304 133.368 34.2097 131.186 33.2841 128.674C32.2262 126.161 31.8295 123.252 32.094 119.946ZM68.9871 77.8961C68.9871 87.2846 70.5078 95.0864 73.5492 101.301C82.6733 95.2186 89.285 89.7971 93.3842 85.0367C97.4834 80.144 99.6653 74.8547 99.9297 69.1686C99.9297 64.4082 98.7396 60.7057 96.3594 58.061C94.1115 55.2841 90.9379 53.8957 86.8386 53.8957C81.6815 53.8957 77.3839 56.2098 73.9459 60.8379C70.64 65.4661 68.9871 71.1522 68.9871 77.8961Z" fill="url(#paint8_linear_21_45)"/>
<path d="M214.174 126.162C210.868 127.22 206.769 128.74 201.876 130.724C196.984 132.84 192.356 135.022 187.992 137.27C192.356 145.732 194.537 155.518 194.537 166.625C194.537 174.824 193.017 182.031 189.975 188.245C186.934 194.593 182.703 199.551 177.281 203.122C171.859 206.824 165.711 208.676 158.834 208.676C153.016 208.676 147.859 207.287 143.363 204.51C138.867 201.866 135.363 198.163 132.851 193.403C130.338 188.642 129.082 183.155 129.082 176.94C129.611 161.072 140.851 146.063 162.801 131.914C158.438 128.212 152.355 126.36 144.553 126.36C140.718 126.36 136.884 126.889 133.049 127.947C129.214 129.005 125.512 130.459 121.941 132.311C119.958 130.856 118.503 128.674 117.578 125.765C116.52 122.988 115.991 120.277 115.991 117.633C120.354 115.12 124.983 113.137 129.875 111.682C134.768 110.228 139.925 109.5 145.347 109.5H145.545C152.421 109.5 158.834 110.691 164.785 113.071C170.603 115.583 175.297 119.021 178.868 123.385C183.76 120.873 188.984 118.426 194.537 116.046C199.959 113.798 204.587 112.079 208.422 110.889C210.538 112.74 212.058 114.922 212.984 117.434C214.042 119.947 214.439 122.856 214.174 126.162ZM177.281 168.212C177.281 158.824 175.76 151.022 172.719 144.807C163.595 150.89 156.983 156.311 152.884 161.072C148.785 165.964 146.603 171.253 146.338 176.94C146.338 181.7 147.528 185.402 149.909 188.047C152.157 190.824 155.33 192.212 159.429 192.212C164.587 192.212 168.884 189.898 172.322 185.27C175.628 180.642 177.281 174.956 177.281 168.212Z" fill="url(#paint9_linear_21_45)"/>
<defs>
<linearGradient id="paint0_linear_21_45" x1="549.798" y1="48" x2="549.798" y2="197.301" gradientUnits="userSpaceOnUse">
<stop stop-color="#B18C45"/>
<stop offset="0.350962" stop-color="#DBC37A"/>
<stop offset="0.725962" stop-color="#D4BA6B"/>
<stop offset="1" stop-color="#AD883A"/>
</linearGradient>
<linearGradient id="paint1_linear_21_45" x1="549.798" y1="48" x2="549.798" y2="197.301" gradientUnits="userSpaceOnUse">
<stop stop-color="#B18C45"/>
<stop offset="0.350962" stop-color="#DBC37A"/>
<stop offset="0.725962" stop-color="#D4BA6B"/>
<stop offset="1" stop-color="#AD883A"/>
</linearGradient>
<linearGradient id="paint2_linear_21_45" x1="549.798" y1="48" x2="549.798" y2="197.301" gradientUnits="userSpaceOnUse">
<stop stop-color="#B18C45"/>
<stop offset="0.350962" stop-color="#DBC37A"/>
<stop offset="0.725962" stop-color="#D4BA6B"/>
<stop offset="1" stop-color="#AD883A"/>
</linearGradient>
<linearGradient id="paint3_linear_21_45" x1="549.798" y1="48" x2="549.798" y2="197.301" gradientUnits="userSpaceOnUse">
<stop stop-color="#B18C45"/>
<stop offset="0.350962" stop-color="#DBC37A"/>
<stop offset="0.725962" stop-color="#D4BA6B"/>
<stop offset="1" stop-color="#AD883A"/>
</linearGradient>
<linearGradient id="paint4_linear_21_45" x1="549.798" y1="48" x2="549.798" y2="197.301" gradientUnits="userSpaceOnUse">
<stop stop-color="#B18C45"/>
<stop offset="0.350962" stop-color="#DBC37A"/>
<stop offset="0.725962" stop-color="#D4BA6B"/>
<stop offset="1" stop-color="#AD883A"/>
</linearGradient>
<linearGradient id="paint5_linear_21_45" x1="549.798" y1="48" x2="549.798" y2="197.301" gradientUnits="userSpaceOnUse">
<stop stop-color="#B18C45"/>
<stop offset="0.350962" stop-color="#DBC37A"/>
<stop offset="0.725962" stop-color="#D4BA6B"/>
<stop offset="1" stop-color="#AD883A"/>
</linearGradient>
<linearGradient id="paint6_linear_21_45" x1="549.798" y1="48" x2="549.798" y2="197.301" gradientUnits="userSpaceOnUse">
<stop stop-color="#B18C45"/>
<stop offset="0.350962" stop-color="#DBC37A"/>
<stop offset="0.725962" stop-color="#D4BA6B"/>
<stop offset="1" stop-color="#AD883A"/>
</linearGradient>
<linearGradient id="paint7_linear_21_45" x1="123.134" y1="0" x2="123.134" y2="246.269" gradientUnits="userSpaceOnUse">
<stop stop-color="#B18C45"/>
<stop offset="0.350962" stop-color="#DBC37A"/>
<stop offset="0.725962" stop-color="#D4BA6B"/>
<stop offset="1" stop-color="#AD883A"/>
</linearGradient>
<linearGradient id="paint8_linear_21_45" x1="123.134" y1="37.4326" x2="123.134" y2="208.676" gradientUnits="userSpaceOnUse">
<stop stop-color="#B18C45"/>
<stop offset="0.350962" stop-color="#DBC37A"/>
<stop offset="0.725962" stop-color="#D4BA6B"/>
<stop offset="1" stop-color="#AD883A"/>
</linearGradient>
<linearGradient id="paint9_linear_21_45" x1="123.134" y1="37.4326" x2="123.134" y2="208.676" gradientUnits="userSpaceOnUse">
<stop stop-color="#B18C45"/>
<stop offset="0.350962" stop-color="#DBC37A"/>
<stop offset="0.725962" stop-color="#D4BA6B"/>
<stop offset="1" stop-color="#AD883A"/>
</linearGradient>
</defs>
</svg>
