<svg width="183" height="172" viewBox="0 0 183 172" fill="none" xmlns="http://www.w3.org/2000/svg">
<path d="M0.07934 82.5137C3.38518 81.4558 7.48441 79.9351 12.377 77.9516C17.2697 75.8359 21.8979 73.654 26.2616 71.4061C21.8979 62.9431 19.716 53.1579 19.716 42.0502C19.716 33.8518 21.2367 26.645 24.2781 20.4301C27.3194 14.0829 31.5509 9.12411 36.9725 5.55381C42.394 1.85127 48.5429 0 55.419 0C61.2373 0 66.3944 1.38845 70.8903 4.16535C75.3863 6.81002 78.8905 10.5126 81.4029 15.273C83.9153 20.0334 85.1716 25.5211 85.1716 31.736C84.6426 47.604 73.4028 62.6125 51.452 76.7615C55.8157 80.4641 61.8985 82.3153 69.7002 82.3153C73.535 82.3153 77.3698 81.7864 81.2045 80.7285C85.0393 79.6706 88.7419 78.2161 92.3122 76.3648C94.2957 77.8194 95.7502 80.0012 96.6759 82.9104C97.7337 85.6873 98.2627 88.3981 98.2627 91.0427C93.899 93.5552 89.2708 95.5387 84.3782 96.9932C79.4855 98.4478 74.3284 99.1751 68.9068 99.1751H68.7085C61.8324 99.1751 55.419 97.985 49.4685 95.6048C43.6503 93.0924 38.956 89.6543 35.3857 85.2906C30.493 87.803 25.2698 90.2493 19.716 92.6295C14.2944 94.8775 9.66626 96.5965 5.83149 97.7866C3.71576 95.9354 2.19508 93.7535 1.26944 91.2411C0.211574 88.7286 -0.185127 85.8195 0.07934 82.5137ZM36.9725 40.4634C36.9725 49.852 38.4932 57.6538 41.5345 63.8688C50.6586 57.786 57.2703 52.3644 61.3695 47.604C65.4688 42.7114 67.6506 37.4221 67.9151 31.736C67.9151 26.9756 66.725 23.2731 64.3448 20.6284C62.0968 17.8515 58.9232 16.4631 54.824 16.4631C49.6669 16.4631 45.3693 18.7772 41.9312 23.4053C38.6254 28.0335 36.9725 33.7195 36.9725 40.4634Z" fill="url(#paint0_linear_3_148)"/>
<path d="M182.159 88.7293C178.854 89.7871 174.754 91.3078 169.862 93.2913C164.969 95.4071 160.341 97.5889 155.977 99.8369C160.341 108.3 162.523 118.085 162.523 129.193C162.523 137.391 161.002 144.598 157.961 150.813C154.919 157.16 150.688 162.119 145.266 165.689C139.845 169.392 133.696 171.243 126.82 171.243C121.001 171.243 115.844 169.854 111.348 167.078C106.853 164.433 103.348 160.73 100.836 155.97C98.3235 151.21 97.0672 145.722 97.0672 139.507C97.5962 123.639 108.836 108.63 130.787 94.4814C126.423 90.7789 120.34 88.9276 112.539 88.9276C108.704 88.9276 104.869 89.4566 101.034 90.5144C97.1995 91.5723 93.4969 93.0269 89.9266 94.8781C87.9431 93.4236 86.4886 91.2417 85.5629 88.3326C84.5051 85.5557 83.9761 82.8449 83.9761 80.2002C88.3398 77.6878 92.968 75.7043 97.8606 74.2497C102.753 72.7951 107.91 72.0679 113.332 72.0679H113.53C120.406 72.0679 126.82 73.258 132.77 75.6382C138.589 78.1506 143.283 81.5887 146.853 85.9524C151.746 83.4399 156.969 80.9936 162.523 78.6134C167.944 76.3655 172.573 74.6464 176.407 73.4563C178.523 75.3076 180.044 77.4894 180.969 80.0019C182.027 82.5143 182.424 85.4234 182.159 88.7293ZM145.266 130.78C145.266 121.391 143.746 113.589 140.704 107.374C131.58 113.457 124.968 118.878 120.869 123.639C116.77 128.532 114.588 133.821 114.324 139.507C114.324 144.267 115.514 147.97 117.894 150.615C120.142 153.391 123.316 154.78 127.415 154.78C132.572 154.78 136.869 152.466 140.308 147.838C143.613 143.209 145.266 137.523 145.266 130.78Z" fill="url(#paint1_linear_3_148)"/>
<defs>
<linearGradient id="paint0_linear_3_148" x1="91.1194" y1="0" x2="91.1194" y2="171.243" gradientUnits="userSpaceOnUse">
<stop stop-color="#B18C45"/>
<stop offset="0.350962" stop-color="#DBC37A"/>
<stop offset="0.725962" stop-color="#D4BA6B"/>
<stop offset="1" stop-color="#AD883A"/>
</linearGradient>
<linearGradient id="paint1_linear_3_148" x1="91.1194" y1="0" x2="91.1194" y2="171.243" gradientUnits="userSpaceOnUse">
<stop stop-color="#B18C45"/>
<stop offset="0.350962" stop-color="#DBC37A"/>
<stop offset="0.725962" stop-color="#D4BA6B"/>
<stop offset="1" stop-color="#AD883A"/>
</linearGradient>
</defs>
</svg>
